<mxfile host="app.diagrams.net" agent="Mozilla/5.0 (Windows NT 10.0; Win64; x64) AppleWebKit/537.36 (KHTML, like Gecko) Chrome/140.0.0.0 Safari/537.36 Edg/140.0.0.0" version="28.2.5">
  <diagram name="หน้า-1" id="Fdm0vs2v_gv5QL0X_xIm">
    <mxGraphModel dx="3178" dy="2733" grid="1" gridSize="10" guides="1" tooltips="1" connect="1" arrows="1" fold="1" page="1" pageScale="1" pageWidth="827" pageHeight="1169" math="0" shadow="0">
      <root>
        <mxCell id="0" />
        <mxCell id="1" parent="0" />
        <mxCell id="main_label" value="Main Function" style="text;html=1;strokeColor=none;fillColor=none;align=center;verticalAlign=middle;whiteSpace=wrap;rounded=0;fontSize=16;fontStyle=1" vertex="1" parent="1">
          <mxGeometry y="5" width="160" height="30" as="geometry" />
        </mxCell>
        <mxCell id="2" value="Start" style="ellipse;whiteSpace=wrap;html=1;" vertex="1" parent="1">
          <mxGeometry x="140" width="120" height="40" as="geometry" />
        </mxCell>
        <mxCell id="3" value="ประกาศตัวแปรอาร์เรย์ Stdnum ขนาด 3 ช่องสำหรับเก็บข้อมูลนักเรียน และตัวแปร i" style="whiteSpace=wrap;html=1;" vertex="1" parent="1">
          <mxGeometry x="80" y="80" width="240" height="40" as="geometry" />
        </mxCell>
        <mxCell id="4" value="แสดงผล &quot;Enter the details of 3 students :&quot;" style="shape=parallelogram;perimeter=parallelogramPerimeter;whiteSpace=wrap;html=1;" vertex="1" parent="1">
          <mxGeometry x="49.5" y="160" width="301" height="40" as="geometry" />
        </mxCell>
        <mxCell id="zSam9myJTZ1_99XPvLMw-266" value="" style="edgeStyle=orthogonalEdgeStyle;rounded=0;orthogonalLoop=1;jettySize=auto;html=1;" edge="1" parent="1" source="5" target="zSam9myJTZ1_99XPvLMw-265">
          <mxGeometry relative="1" as="geometry" />
        </mxCell>
        <mxCell id="5" value="กำหนดค่า i = 0" style="whiteSpace=wrap;html=1;" vertex="1" parent="1">
          <mxGeometry x="140" y="240" width="120" height="40" as="geometry" />
        </mxCell>
        <mxCell id="zSam9myJTZ1_99XPvLMw-273" style="edgeStyle=orthogonalEdgeStyle;rounded=0;orthogonalLoop=1;jettySize=auto;html=1;" edge="1" parent="1" source="6" target="zSam9myJTZ1_99XPvLMw-270">
          <mxGeometry relative="1" as="geometry">
            <Array as="points">
              <mxPoint x="360" y="400" />
              <mxPoint x="360" y="1800" />
              <mxPoint x="200" y="1800" />
            </Array>
          </mxGeometry>
        </mxCell>
        <mxCell id="6" value="i &lt; 3" style="rhombus;whiteSpace=wrap;html=1;" vertex="1" parent="1">
          <mxGeometry x="150" y="360" width="100" height="80" as="geometry" />
        </mxCell>
        <mxCell id="7" value="" style="endArrow=classic;html=1;exitX=0.5;exitY=1;exitDx=0;exitDy=0;entryX=0.5;entryY=0;entryDx=0;entryDy=0;" edge="1" parent="1" source="2" target="3">
          <mxGeometry width="50" height="50" relative="1" as="geometry">
            <mxPoint x="400" y="450" as="sourcePoint" />
            <mxPoint x="450" y="400" as="targetPoint" />
          </mxGeometry>
        </mxCell>
        <mxCell id="8" value="" style="endArrow=classic;html=1;exitX=0.5;exitY=1;exitDx=0;exitDy=0;entryX=0.5;entryY=0;entryDx=0;entryDy=0;" edge="1" parent="1" source="3" target="4">
          <mxGeometry width="50" height="50" relative="1" as="geometry">
            <mxPoint x="200" y="150" as="sourcePoint" />
            <mxPoint x="200" y="190" as="targetPoint" />
          </mxGeometry>
        </mxCell>
        <mxCell id="9" value="" style="endArrow=classic;html=1;exitX=0.5;exitY=1;exitDx=0;exitDy=0;entryX=0.5;entryY=0;entryDx=0;entryDy=0;" edge="1" parent="1" source="4" target="5">
          <mxGeometry width="50" height="50" relative="1" as="geometry">
            <mxPoint x="200" y="270" as="sourcePoint" />
            <mxPoint x="200" y="310" as="targetPoint" />
          </mxGeometry>
        </mxCell>
        <mxCell id="11" value="แสดงผล &quot;Student (i + 1):&quot;" style="shape=parallelogram;perimeter=parallelogramPerimeter;whiteSpace=wrap;html=1;" vertex="1" parent="1">
          <mxGeometry x="90" y="480" width="220" height="40" as="geometry" />
        </mxCell>
        <mxCell id="12" value="" style="endArrow=classic;html=1;exitX=0.5;exitY=1;exitDx=0;exitDy=0;entryX=0.5;entryY=0;entryDx=0;entryDy=0;" edge="1" parent="1" source="6" target="11">
          <mxGeometry width="50" height="50" relative="1" as="geometry">
            <mxPoint x="200" y="470" as="sourcePoint" />
            <mxPoint x="200" y="510" as="targetPoint" />
          </mxGeometry>
        </mxCell>
        <mxCell id="zSam9myJTZ1_99XPvLMw-253" value="" style="edgeStyle=orthogonalEdgeStyle;rounded=0;orthogonalLoop=1;jettySize=auto;html=1;" edge="1" parent="1" source="14" target="16">
          <mxGeometry relative="1" as="geometry" />
        </mxCell>
        <mxCell id="14" value="แสดงผล &quot;Name :&quot;" style="shape=parallelogram;perimeter=parallelogramPerimeter;whiteSpace=wrap;html=1;" vertex="1" parent="1">
          <mxGeometry x="120" y="560" width="160" height="40" as="geometry" />
        </mxCell>
        <mxCell id="15" value="" style="endArrow=classic;html=1;exitX=0.5;exitY=1;exitDx=0;exitDy=0;entryX=0.5;entryY=0;entryDx=0;entryDy=0;" edge="1" parent="1" source="11" target="14">
          <mxGeometry width="50" height="50" relative="1" as="geometry">
            <mxPoint x="200" y="610" as="sourcePoint" />
            <mxPoint x="200" y="650" as="targetPoint" />
          </mxGeometry>
        </mxCell>
        <mxCell id="zSam9myJTZ1_99XPvLMw-252" value="" style="edgeStyle=orthogonalEdgeStyle;rounded=0;orthogonalLoop=1;jettySize=auto;html=1;" edge="1" parent="1" source="16" target="18">
          <mxGeometry relative="1" as="geometry" />
        </mxCell>
        <mxCell id="16" value="รับค่าชื่อ" style="shape=parallelogram;perimeter=parallelogramPerimeter;whiteSpace=wrap;html=1;direction=west;" vertex="1" parent="1">
          <mxGeometry x="120" y="640" width="160" height="40" as="geometry" />
        </mxCell>
        <mxCell id="zSam9myJTZ1_99XPvLMw-251" value="" style="edgeStyle=orthogonalEdgeStyle;rounded=0;orthogonalLoop=1;jettySize=auto;html=1;" edge="1" parent="1" source="18" target="20">
          <mxGeometry relative="1" as="geometry" />
        </mxCell>
        <mxCell id="18" value="แสดงผล &quot;ID :&quot;" style="shape=parallelogram;perimeter=parallelogramPerimeter;whiteSpace=wrap;html=1;" vertex="1" parent="1">
          <mxGeometry x="120" y="720" width="160" height="40" as="geometry" />
        </mxCell>
        <mxCell id="zSam9myJTZ1_99XPvLMw-254" value="" style="edgeStyle=orthogonalEdgeStyle;rounded=0;orthogonalLoop=1;jettySize=auto;html=1;" edge="1" parent="1" source="20" target="22">
          <mxGeometry relative="1" as="geometry" />
        </mxCell>
        <mxCell id="20" value="รับค่ารหัสนักเรียน" style="shape=parallelogram;perimeter=parallelogramPerimeter;whiteSpace=wrap;html=1;direction=west;" vertex="1" parent="1">
          <mxGeometry x="120" y="800" width="160" height="40" as="geometry" />
        </mxCell>
        <mxCell id="zSam9myJTZ1_99XPvLMw-255" value="" style="edgeStyle=orthogonalEdgeStyle;rounded=0;orthogonalLoop=1;jettySize=auto;html=1;" edge="1" parent="1" source="22" target="24">
          <mxGeometry relative="1" as="geometry" />
        </mxCell>
        <mxCell id="22" value="แสดงผล &quot;Scores in Subject 1 :&quot;" style="shape=parallelogram;perimeter=parallelogramPerimeter;whiteSpace=wrap;html=1;" vertex="1" parent="1">
          <mxGeometry x="80" y="880" width="240" height="40" as="geometry" />
        </mxCell>
        <mxCell id="zSam9myJTZ1_99XPvLMw-256" value="" style="edgeStyle=orthogonalEdgeStyle;rounded=0;orthogonalLoop=1;jettySize=auto;html=1;" edge="1" parent="1" source="24" target="26">
          <mxGeometry relative="1" as="geometry" />
        </mxCell>
        <mxCell id="24" value="รับค่าคะแนนวิชาที่ 1" style="shape=parallelogram;perimeter=parallelogramPerimeter;whiteSpace=wrap;html=1;direction=west;" vertex="1" parent="1">
          <mxGeometry x="120" y="960" width="160" height="40" as="geometry" />
        </mxCell>
        <mxCell id="zSam9myJTZ1_99XPvLMw-257" value="" style="edgeStyle=orthogonalEdgeStyle;rounded=0;orthogonalLoop=1;jettySize=auto;html=1;" edge="1" parent="1" source="26" target="28">
          <mxGeometry relative="1" as="geometry" />
        </mxCell>
        <mxCell id="26" value="แสดงผล &quot;Scores in Subject 2 :&quot;" style="shape=parallelogram;perimeter=parallelogramPerimeter;whiteSpace=wrap;html=1;" vertex="1" parent="1">
          <mxGeometry x="80" y="1040" width="240" height="40" as="geometry" />
        </mxCell>
        <mxCell id="zSam9myJTZ1_99XPvLMw-258" value="" style="edgeStyle=orthogonalEdgeStyle;rounded=0;orthogonalLoop=1;jettySize=auto;html=1;" edge="1" parent="1" source="28" target="30">
          <mxGeometry relative="1" as="geometry" />
        </mxCell>
        <mxCell id="28" value="รับค่าคะแนนวิชาที่ 2" style="shape=parallelogram;perimeter=parallelogramPerimeter;whiteSpace=wrap;html=1;direction=west;" vertex="1" parent="1">
          <mxGeometry x="120" y="1120" width="160" height="40" as="geometry" />
        </mxCell>
        <mxCell id="zSam9myJTZ1_99XPvLMw-260" value="" style="edgeStyle=orthogonalEdgeStyle;rounded=0;orthogonalLoop=1;jettySize=auto;html=1;" edge="1" parent="1" source="30" target="32">
          <mxGeometry relative="1" as="geometry" />
        </mxCell>
        <mxCell id="30" value="แสดงผล &quot;Scores in Subject 3 :&quot;" style="shape=parallelogram;perimeter=parallelogramPerimeter;whiteSpace=wrap;html=1;" vertex="1" parent="1">
          <mxGeometry x="80" y="1200" width="240" height="40" as="geometry" />
        </mxCell>
        <mxCell id="zSam9myJTZ1_99XPvLMw-261" value="" style="edgeStyle=orthogonalEdgeStyle;rounded=0;orthogonalLoop=1;jettySize=auto;html=1;" edge="1" parent="1" source="32" target="34">
          <mxGeometry relative="1" as="geometry" />
        </mxCell>
        <mxCell id="32" value="รับค่าคะแนนวิชาที่ 3" style="shape=parallelogram;perimeter=parallelogramPerimeter;whiteSpace=wrap;html=1;direction=west;" vertex="1" parent="1">
          <mxGeometry x="120" y="1280" width="160" height="40" as="geometry" />
        </mxCell>
        <mxCell id="zSam9myJTZ1_99XPvLMw-262" value="" style="edgeStyle=orthogonalEdgeStyle;rounded=0;orthogonalLoop=1;jettySize=auto;html=1;" edge="1" parent="1" source="34" target="36">
          <mxGeometry relative="1" as="geometry" />
        </mxCell>
        <mxCell id="34" value="แสดงผล &quot;Scores in Subject 4 :&quot;" style="shape=parallelogram;perimeter=parallelogramPerimeter;whiteSpace=wrap;html=1;" vertex="1" parent="1">
          <mxGeometry x="80" y="1360" width="240" height="40" as="geometry" />
        </mxCell>
        <mxCell id="zSam9myJTZ1_99XPvLMw-263" value="" style="edgeStyle=orthogonalEdgeStyle;rounded=0;orthogonalLoop=1;jettySize=auto;html=1;" edge="1" parent="1" source="36" target="38">
          <mxGeometry relative="1" as="geometry" />
        </mxCell>
        <mxCell id="36" value="รับค่าคะแนนวิชาที่ 4" style="shape=parallelogram;perimeter=parallelogramPerimeter;whiteSpace=wrap;html=1;direction=west;" vertex="1" parent="1">
          <mxGeometry x="120" y="1440" width="160" height="40" as="geometry" />
        </mxCell>
        <mxCell id="zSam9myJTZ1_99XPvLMw-264" value="" style="edgeStyle=orthogonalEdgeStyle;rounded=0;orthogonalLoop=1;jettySize=auto;html=1;" edge="1" parent="1" source="38" target="40">
          <mxGeometry relative="1" as="geometry" />
        </mxCell>
        <mxCell id="38" value="แสดงผล &quot;Scores in Subject 5 :&quot;" style="shape=parallelogram;perimeter=parallelogramPerimeter;whiteSpace=wrap;html=1;" vertex="1" parent="1">
          <mxGeometry x="80" y="1520" width="240" height="40" as="geometry" />
        </mxCell>
        <mxCell id="zSam9myJTZ1_99XPvLMw-268" value="" style="edgeStyle=orthogonalEdgeStyle;rounded=0;orthogonalLoop=1;jettySize=auto;html=1;" edge="1" parent="1" source="40" target="42">
          <mxGeometry relative="1" as="geometry" />
        </mxCell>
        <mxCell id="40" value="รับค่าคะแนนวิชาที่ 5" style="shape=parallelogram;perimeter=parallelogramPerimeter;whiteSpace=wrap;html=1;direction=west;" vertex="1" parent="1">
          <mxGeometry x="120" y="1600" width="160" height="40" as="geometry" />
        </mxCell>
        <mxCell id="zSam9myJTZ1_99XPvLMw-269" style="edgeStyle=orthogonalEdgeStyle;rounded=0;orthogonalLoop=1;jettySize=auto;html=1;entryX=0;entryY=0.5;entryDx=0;entryDy=0;" edge="1" parent="1" source="42" target="zSam9myJTZ1_99XPvLMw-265">
          <mxGeometry relative="1" as="geometry">
            <Array as="points">
              <mxPoint x="200" y="1760" />
              <mxPoint x="40" y="1760" />
              <mxPoint x="40" y="325" />
            </Array>
          </mxGeometry>
        </mxCell>
        <mxCell id="42" value="เพิ่มค่า i ขึ้น 1" style="whiteSpace=wrap;html=1;" vertex="1" parent="1">
          <mxGeometry x="140" y="1680" width="120" height="40" as="geometry" />
        </mxCell>
        <mxCell id="zSam9myJTZ1_99XPvLMw-281" style="edgeStyle=orthogonalEdgeStyle;rounded=0;orthogonalLoop=1;jettySize=auto;html=1;entryX=0.5;entryY=0;entryDx=0;entryDy=0;" edge="1" parent="1" source="50" target="77">
          <mxGeometry relative="1" as="geometry">
            <mxPoint x="360" y="2090" as="targetPoint" />
            <Array as="points">
              <mxPoint x="360" y="2000" />
              <mxPoint x="360" y="2840" />
              <mxPoint x="200" y="2840" />
            </Array>
          </mxGeometry>
        </mxCell>
        <mxCell id="50" value="i &lt; 3" style="rhombus;whiteSpace=wrap;html=1;" vertex="1" parent="1">
          <mxGeometry x="150" y="1960" width="100" height="80" as="geometry" />
        </mxCell>
        <mxCell id="52" value="แสดงผล &quot;Student (i+1):&quot;" style="shape=parallelogram;perimeter=parallelogramPerimeter;whiteSpace=wrap;html=1;" vertex="1" parent="1">
          <mxGeometry x="80" y="2080" width="240" height="40" as="geometry" />
        </mxCell>
        <mxCell id="53" value="" style="endArrow=classic;html=1;exitX=0.5;exitY=1;exitDx=0;exitDy=0;entryX=0.5;entryY=0;entryDx=0;entryDy=0;" edge="1" parent="1" source="50" target="52">
          <mxGeometry width="50" height="50" relative="1" as="geometry">
            <mxPoint x="230" y="2210" as="sourcePoint" />
            <mxPoint x="230" y="2250" as="targetPoint" />
          </mxGeometry>
        </mxCell>
        <mxCell id="55" value="แสดงผลชื่อ" style="shape=parallelogram;perimeter=parallelogramPerimeter;whiteSpace=wrap;html=1;" vertex="1" parent="1">
          <mxGeometry x="120" y="2160" width="160" height="40" as="geometry" />
        </mxCell>
        <mxCell id="56" value="" style="endArrow=classic;html=1;exitX=0.5;exitY=1;exitDx=0;exitDy=0;entryX=0.5;entryY=0;entryDx=0;entryDy=0;" edge="1" parent="1" source="52" target="55">
          <mxGeometry width="50" height="50" relative="1" as="geometry">
            <mxPoint x="230" y="2310" as="sourcePoint" />
            <mxPoint x="230" y="2350" as="targetPoint" />
          </mxGeometry>
        </mxCell>
        <mxCell id="57" value="แสดงผลรหัสนักเรียน" style="shape=parallelogram;perimeter=parallelogramPerimeter;whiteSpace=wrap;html=1;" vertex="1" parent="1">
          <mxGeometry x="120" y="2240" width="160" height="40" as="geometry" />
        </mxCell>
        <mxCell id="58" value="" style="endArrow=classic;html=1;exitX=0.5;exitY=1;exitDx=0;exitDy=0;entryX=0.5;entryY=0;entryDx=0;entryDy=0;" edge="1" parent="1" source="55" target="57">
          <mxGeometry width="50" height="50" relative="1" as="geometry">
            <mxPoint x="230" y="2410" as="sourcePoint" />
            <mxPoint x="230" y="2450" as="targetPoint" />
          </mxGeometry>
        </mxCell>
        <mxCell id="59" value="แสดงผลคะแนนทั้ง 5 วิชา" style="shape=parallelogram;perimeter=parallelogramPerimeter;whiteSpace=wrap;html=1;" vertex="1" parent="1">
          <mxGeometry x="120" y="2318" width="160" height="42" as="geometry" />
        </mxCell>
        <mxCell id="60" value="" style="endArrow=classic;html=1;exitX=0.5;exitY=1;exitDx=0;exitDy=0;entryX=0.5;entryY=0;entryDx=0;entryDy=0;" edge="1" parent="1" source="57" target="59">
          <mxGeometry width="50" height="50" relative="1" as="geometry">
            <mxPoint x="230" y="2510" as="sourcePoint" />
            <mxPoint x="230" y="2550" as="targetPoint" />
          </mxGeometry>
        </mxCell>
        <mxCell id="61" value="เรียกใช้ฟังก์ชัน Grade() 5 ครั้ง เพื่อหาเกรดแต่ละวิชา" style="shape=process;perimeter=rectanglePerimeter;whiteSpace=wrap;html=1;" vertex="1" parent="1">
          <mxGeometry x="110" y="2400" width="180" height="40" as="geometry" />
        </mxCell>
        <mxCell id="62" value="" style="endArrow=classic;html=1;exitX=0.5;exitY=1;exitDx=0;exitDy=0;entryX=0.5;entryY=0;entryDx=0;entryDy=0;" edge="1" parent="1" source="59" target="61">
          <mxGeometry width="50" height="50" relative="1" as="geometry">
            <mxPoint x="230" y="2610" as="sourcePoint" />
            <mxPoint x="230" y="2650" as="targetPoint" />
          </mxGeometry>
        </mxCell>
        <mxCell id="63" value="แสดงผลเกรดทั้ง 5 วิชา" style="shape=parallelogram;perimeter=parallelogramPerimeter;whiteSpace=wrap;html=1;" vertex="1" parent="1">
          <mxGeometry x="120" y="2480" width="160" height="40" as="geometry" />
        </mxCell>
        <mxCell id="64" value="" style="endArrow=classic;html=1;exitX=0.5;exitY=1;exitDx=0;exitDy=0;entryX=0.5;entryY=0;entryDx=0;entryDy=0;" edge="1" parent="1" source="61" target="63">
          <mxGeometry width="50" height="50" relative="1" as="geometry">
            <mxPoint x="230" y="2720" as="sourcePoint" />
            <mxPoint x="230" y="2760" as="targetPoint" />
          </mxGeometry>
        </mxCell>
        <mxCell id="65" value="เรียกใช้ฟังก์ชัน averscore() เพื่อหาคะแนนเฉลี่ย" style="shape=process;perimeter=rectanglePerimeter;whiteSpace=wrap;html=1;" vertex="1" parent="1">
          <mxGeometry x="110" y="2560" width="180" height="40" as="geometry" />
        </mxCell>
        <mxCell id="66" value="" style="endArrow=classic;html=1;exitX=0.5;exitY=1;exitDx=0;exitDy=0;entryX=0.5;entryY=0;entryDx=0;entryDy=0;" edge="1" parent="1" source="63" target="65">
          <mxGeometry width="50" height="50" relative="1" as="geometry">
            <mxPoint x="230" y="2820" as="sourcePoint" />
            <mxPoint x="230" y="2860" as="targetPoint" />
          </mxGeometry>
        </mxCell>
        <mxCell id="67" value="แสดงผลคะแนนเฉลี่ย" style="shape=parallelogram;perimeter=parallelogramPerimeter;whiteSpace=wrap;html=1;" vertex="1" parent="1">
          <mxGeometry x="120" y="2640" width="160" height="40" as="geometry" />
        </mxCell>
        <mxCell id="68" value="" style="endArrow=classic;html=1;exitX=0.5;exitY=1;exitDx=0;exitDy=0;entryX=0.5;entryY=0;entryDx=0;entryDy=0;" edge="1" parent="1" source="65" target="67">
          <mxGeometry width="50" height="50" relative="1" as="geometry">
            <mxPoint x="230" y="2930" as="sourcePoint" />
            <mxPoint x="230" y="2970" as="targetPoint" />
          </mxGeometry>
        </mxCell>
        <mxCell id="70" value="" style="endArrow=classic;html=1;exitX=0.5;exitY=1;exitDx=0;exitDy=0;entryX=0.5;entryY=0;entryDx=0;entryDy=0;" edge="1" parent="1" source="67">
          <mxGeometry width="50" height="50" relative="1" as="geometry">
            <mxPoint x="230" y="3030" as="sourcePoint" />
            <mxPoint x="200" y="2720" as="targetPoint" />
          </mxGeometry>
        </mxCell>
        <mxCell id="zSam9myJTZ1_99XPvLMw-272" style="edgeStyle=orthogonalEdgeStyle;rounded=0;orthogonalLoop=1;jettySize=auto;html=1;entryX=0;entryY=0.5;entryDx=0;entryDy=0;" edge="1" parent="1" source="71" target="zSam9myJTZ1_99XPvLMw-275">
          <mxGeometry relative="1" as="geometry">
            <mxPoint x="-40" y="1910" as="targetPoint" />
            <Array as="points">
              <mxPoint x="200" y="2800" />
              <mxPoint x="40" y="2800" />
              <mxPoint x="40" y="1915" />
            </Array>
          </mxGeometry>
        </mxCell>
        <mxCell id="71" value="เพิ่มค่า i ขึ้น 1" style="whiteSpace=wrap;html=1;" vertex="1" parent="1">
          <mxGeometry x="140" y="2720" width="120" height="40" as="geometry" />
        </mxCell>
        <mxCell id="77" value="Stop" style="ellipse;whiteSpace=wrap;html=1;" vertex="1" parent="1">
          <mxGeometry x="140" y="2883" width="120" height="40" as="geometry" />
        </mxCell>
        <mxCell id="averscore_label" value="Function averscore" style="text;html=1;strokeColor=none;fillColor=none;align=center;verticalAlign=middle;whiteSpace=wrap;rounded=0;fontSize=16;fontStyle=1" vertex="1" parent="1">
          <mxGeometry x="705" y="1120" width="200" height="30" as="geometry" />
        </mxCell>
        <mxCell id="100" value="เริ่มต้นฟังก์ชัน averscore (รับข้อมูลนักเรียน)" style="shape=process;perimeter=rectanglePerimeter;whiteSpace=wrap;html=1;" vertex="1" parent="1">
          <mxGeometry x="640" y="1160" width="320" height="40" as="geometry" />
        </mxCell>
        <mxCell id="101" value="คำนวณคะแนนเฉลี่ยจาก 5 วิชา" style="whiteSpace=wrap;html=1;" vertex="1" parent="1">
          <mxGeometry x="705" y="1240" width="190" height="40" as="geometry" />
        </mxCell>
        <mxCell id="102" value="" style="endArrow=classic;html=1;exitX=0.5;exitY=1;exitDx=0;exitDy=0;entryX=0.5;entryY=0;entryDx=0;entryDy=0;" edge="1" parent="1" source="100" target="101">
          <mxGeometry width="50" height="50" relative="1" as="geometry">
            <mxPoint x="800" y="1310" as="sourcePoint" />
            <mxPoint x="800" y="1350" as="targetPoint" />
          </mxGeometry>
        </mxCell>
        <mxCell id="103" value="คืนค่าคะแนนเฉลี่ย" style="shape=process;perimeter=rectanglePerimeter;whiteSpace=wrap;html=1;" vertex="1" parent="1">
          <mxGeometry x="740" y="1320" width="120" height="40" as="geometry" />
        </mxCell>
        <mxCell id="104" value="" style="endArrow=classic;html=1;exitX=0.5;exitY=1;exitDx=0;exitDy=0;entryX=0.5;entryY=0;entryDx=0;entryDy=0;" edge="1" parent="1" source="101" target="103">
          <mxGeometry width="50" height="50" relative="1" as="geometry">
            <mxPoint x="800" y="1410" as="sourcePoint" />
            <mxPoint x="800" y="1450" as="targetPoint" />
          </mxGeometry>
        </mxCell>
        <mxCell id="grade_label" value="Function Grade" style="text;html=1;strokeColor=none;fillColor=none;align=center;verticalAlign=middle;whiteSpace=wrap;rounded=0;fontSize=16;fontStyle=1" vertex="1" parent="1">
          <mxGeometry x="490" y="5" width="160" height="30" as="geometry" />
        </mxCell>
        <mxCell id="200" value="เริ่มต้นฟังก์ชัน Grade (รับค่าคะแนน)" style="shape=process;perimeter=rectanglePerimeter;whiteSpace=wrap;html=1;" vertex="1" parent="1">
          <mxGeometry x="660" width="200" height="40" as="geometry" />
        </mxCell>
        <mxCell id="201" value="score &gt;= 80 &amp;&amp; score &lt;= 100" style="rhombus;whiteSpace=wrap;html=1;" vertex="1" parent="1">
          <mxGeometry x="660" y="80" width="200" height="80" as="geometry" />
        </mxCell>
        <mxCell id="202" value="" style="endArrow=classic;html=1;exitX=0.5;exitY=1;exitDx=0;exitDy=0;entryX=0.5;entryY=0;entryDx=0;entryDy=0;" edge="1" parent="1" source="200" target="201">
          <mxGeometry width="50" height="50" relative="1" as="geometry">
            <mxPoint x="730" y="170" as="sourcePoint" />
            <mxPoint x="730" y="210" as="targetPoint" />
          </mxGeometry>
        </mxCell>
        <mxCell id="203" value="คืนค่า &quot;A&quot;" style="shape=process;perimeter=rectanglePerimeter;whiteSpace=wrap;html=1;" vertex="1" parent="1">
          <mxGeometry x="920" y="100" width="120" height="40" as="geometry" />
        </mxCell>
        <mxCell id="204" value="" style="endArrow=classic;html=1;exitX=1;exitY=0.5;exitDx=0;exitDy=0;entryX=0;entryY=0.5;entryDx=0;entryDy=0;" edge="1" parent="1" source="201" target="203">
          <mxGeometry width="50" height="50" relative="1" as="geometry">
            <mxPoint x="840" y="250" as="sourcePoint" />
            <mxPoint x="890" y="250" as="targetPoint" />
          </mxGeometry>
        </mxCell>
        <mxCell id="206" value="score &gt;= 75 &amp;&amp; score &lt; 80" style="rhombus;whiteSpace=wrap;html=1;" vertex="1" parent="1">
          <mxGeometry x="660" y="200" width="200" height="80" as="geometry" />
        </mxCell>
        <mxCell id="207" value="" style="endArrow=classic;html=1;exitX=0.5;exitY=1;exitDx=0;exitDy=0;entryX=0.5;entryY=0;entryDx=0;entryDy=0;" edge="1" parent="1" source="201" target="206">
          <mxGeometry width="50" height="50" relative="1" as="geometry">
            <mxPoint x="730" y="310" as="sourcePoint" />
            <mxPoint x="730" y="350" as="targetPoint" />
          </mxGeometry>
        </mxCell>
        <mxCell id="209" value="คืนค่า &quot;B+&quot;" style="shape=process;perimeter=rectanglePerimeter;whiteSpace=wrap;html=1;" vertex="1" parent="1">
          <mxGeometry x="920" y="220" width="120" height="40" as="geometry" />
        </mxCell>
        <mxCell id="210" value="" style="endArrow=classic;html=1;exitX=1;exitY=0.5;exitDx=0;exitDy=0;entryX=0;entryY=0.5;entryDx=0;entryDy=0;" edge="1" parent="1" source="206" target="209">
          <mxGeometry width="50" height="50" relative="1" as="geometry">
            <mxPoint x="840" y="390" as="sourcePoint" />
            <mxPoint x="890" y="390" as="targetPoint" />
          </mxGeometry>
        </mxCell>
        <mxCell id="212" value="score &gt;= 70 &amp;&amp; score &lt; 75" style="rhombus;whiteSpace=wrap;html=1;" vertex="1" parent="1">
          <mxGeometry x="660" y="320" width="200" height="80" as="geometry" />
        </mxCell>
        <mxCell id="213" value="" style="endArrow=classic;html=1;exitX=0.5;exitY=1;exitDx=0;exitDy=0;entryX=0.5;entryY=0;entryDx=0;entryDy=0;" edge="1" parent="1" source="206" target="212">
          <mxGeometry width="50" height="50" relative="1" as="geometry">
            <mxPoint x="730" y="450" as="sourcePoint" />
            <mxPoint x="730" y="490" as="targetPoint" />
          </mxGeometry>
        </mxCell>
        <mxCell id="215" value="คืนค่า &quot;B&quot;" style="shape=process;perimeter=rectanglePerimeter;whiteSpace=wrap;html=1;" vertex="1" parent="1">
          <mxGeometry x="920" y="340" width="120" height="40" as="geometry" />
        </mxCell>
        <mxCell id="216" value="" style="endArrow=classic;html=1;exitX=1;exitY=0.5;exitDx=0;exitDy=0;entryX=0;entryY=0.5;entryDx=0;entryDy=0;" edge="1" parent="1" source="212" target="215">
          <mxGeometry width="50" height="50" relative="1" as="geometry">
            <mxPoint x="840" y="530" as="sourcePoint" />
            <mxPoint x="890" y="530" as="targetPoint" />
          </mxGeometry>
        </mxCell>
        <mxCell id="218" value="score &gt;= 65 &amp;&amp; score &lt; 70" style="rhombus;whiteSpace=wrap;html=1;" vertex="1" parent="1">
          <mxGeometry x="660" y="440" width="200" height="80" as="geometry" />
        </mxCell>
        <mxCell id="219" value="" style="endArrow=classic;html=1;exitX=0.5;exitY=1;exitDx=0;exitDy=0;entryX=0.5;entryY=0;entryDx=0;entryDy=0;" edge="1" parent="1" source="212" target="218">
          <mxGeometry width="50" height="50" relative="1" as="geometry">
            <mxPoint x="730" y="590" as="sourcePoint" />
            <mxPoint x="730" y="630" as="targetPoint" />
          </mxGeometry>
        </mxCell>
        <mxCell id="221" value="คืนค่า &quot;C+&quot;" style="shape=process;perimeter=rectanglePerimeter;whiteSpace=wrap;html=1;" vertex="1" parent="1">
          <mxGeometry x="920" y="460" width="120" height="40" as="geometry" />
        </mxCell>
        <mxCell id="222" value="" style="endArrow=classic;html=1;exitX=1;exitY=0.5;exitDx=0;exitDy=0;entryX=0;entryY=0.5;entryDx=0;entryDy=0;" edge="1" parent="1" source="218" target="221">
          <mxGeometry width="50" height="50" relative="1" as="geometry">
            <mxPoint x="840" y="670" as="sourcePoint" />
            <mxPoint x="890" y="670" as="targetPoint" />
          </mxGeometry>
        </mxCell>
        <mxCell id="224" value="score &gt;= 60 &amp;&amp; score &lt; 65" style="rhombus;whiteSpace=wrap;html=1;" vertex="1" parent="1">
          <mxGeometry x="660" y="560" width="200" height="80" as="geometry" />
        </mxCell>
        <mxCell id="225" value="" style="endArrow=classic;html=1;exitX=0.5;exitY=1;exitDx=0;exitDy=0;entryX=0.5;entryY=0;entryDx=0;entryDy=0;" edge="1" parent="1" source="218" target="224">
          <mxGeometry width="50" height="50" relative="1" as="geometry">
            <mxPoint x="730" y="730" as="sourcePoint" />
            <mxPoint x="730" y="770" as="targetPoint" />
          </mxGeometry>
        </mxCell>
        <mxCell id="227" value="คืนค่า &quot;C&quot;" style="shape=process;perimeter=rectanglePerimeter;whiteSpace=wrap;html=1;" vertex="1" parent="1">
          <mxGeometry x="920" y="580" width="120" height="40" as="geometry" />
        </mxCell>
        <mxCell id="228" value="" style="endArrow=classic;html=1;exitX=1;exitY=0.5;exitDx=0;exitDy=0;entryX=0;entryY=0.5;entryDx=0;entryDy=0;" edge="1" parent="1" source="224" target="227">
          <mxGeometry width="50" height="50" relative="1" as="geometry">
            <mxPoint x="840" y="810" as="sourcePoint" />
            <mxPoint x="890" y="810" as="targetPoint" />
          </mxGeometry>
        </mxCell>
        <mxCell id="230" value="score &gt;= 55 &amp;&amp; score &lt; 60" style="rhombus;whiteSpace=wrap;html=1;" vertex="1" parent="1">
          <mxGeometry x="660" y="680" width="200" height="80" as="geometry" />
        </mxCell>
        <mxCell id="231" value="" style="endArrow=classic;html=1;exitX=0.5;exitY=1;exitDx=0;exitDy=0;entryX=0.5;entryY=0;entryDx=0;entryDy=0;" edge="1" parent="1" source="224" target="230">
          <mxGeometry width="50" height="50" relative="1" as="geometry">
            <mxPoint x="730" y="870" as="sourcePoint" />
            <mxPoint x="730" y="910" as="targetPoint" />
          </mxGeometry>
        </mxCell>
        <mxCell id="233" value="คืนค่า &quot;D+&quot;" style="shape=process;perimeter=rectanglePerimeter;whiteSpace=wrap;html=1;" vertex="1" parent="1">
          <mxGeometry x="920" y="700" width="120" height="40" as="geometry" />
        </mxCell>
        <mxCell id="234" value="" style="endArrow=classic;html=1;exitX=1;exitY=0.5;exitDx=0;exitDy=0;entryX=0;entryY=0.5;entryDx=0;entryDy=0;" edge="1" parent="1" source="230" target="233">
          <mxGeometry width="50" height="50" relative="1" as="geometry">
            <mxPoint x="840" y="950" as="sourcePoint" />
            <mxPoint x="890" y="950" as="targetPoint" />
          </mxGeometry>
        </mxCell>
        <mxCell id="236" value="score &gt;= 50 &amp;&amp; score &lt; 55" style="rhombus;whiteSpace=wrap;html=1;" vertex="1" parent="1">
          <mxGeometry x="660" y="800" width="200" height="80" as="geometry" />
        </mxCell>
        <mxCell id="237" value="" style="endArrow=classic;html=1;exitX=0.5;exitY=1;exitDx=0;exitDy=0;entryX=0.5;entryY=0;entryDx=0;entryDy=0;" edge="1" parent="1" source="230" target="236">
          <mxGeometry width="50" height="50" relative="1" as="geometry">
            <mxPoint x="730" y="1010" as="sourcePoint" />
            <mxPoint x="730" y="1050" as="targetPoint" />
          </mxGeometry>
        </mxCell>
        <mxCell id="239" value="คืนค่า &quot;D&quot;" style="shape=process;perimeter=rectanglePerimeter;whiteSpace=wrap;html=1;" vertex="1" parent="1">
          <mxGeometry x="920" y="820" width="120" height="40" as="geometry" />
        </mxCell>
        <mxCell id="240" value="" style="endArrow=classic;html=1;exitX=1;exitY=0.5;exitDx=0;exitDy=0;entryX=0;entryY=0.5;entryDx=0;entryDy=0;" edge="1" parent="1" source="236" target="239">
          <mxGeometry width="50" height="50" relative="1" as="geometry">
            <mxPoint x="840" y="1090" as="sourcePoint" />
            <mxPoint x="890" y="1090" as="targetPoint" />
          </mxGeometry>
        </mxCell>
        <mxCell id="242" value="คืนค่า &quot;F&quot;" style="shape=process;perimeter=rectanglePerimeter;whiteSpace=wrap;html=1;" vertex="1" parent="1">
          <mxGeometry x="700" y="920" width="120" height="40" as="geometry" />
        </mxCell>
        <mxCell id="243" value="" style="endArrow=classic;html=1;exitX=0.5;exitY=1;exitDx=0;exitDy=0;entryX=0.5;entryY=0;entryDx=0;entryDy=0;" edge="1" parent="1" source="236" target="242">
          <mxGeometry width="50" height="50" relative="1" as="geometry">
            <mxPoint x="730" y="1150" as="sourcePoint" />
            <mxPoint x="730" y="1190" as="targetPoint" />
          </mxGeometry>
        </mxCell>
        <mxCell id="zSam9myJTZ1_99XPvLMw-267" value="" style="edgeStyle=orthogonalEdgeStyle;rounded=0;orthogonalLoop=1;jettySize=auto;html=1;" edge="1" parent="1" source="zSam9myJTZ1_99XPvLMw-265" target="6">
          <mxGeometry relative="1" as="geometry" />
        </mxCell>
        <mxCell id="zSam9myJTZ1_99XPvLMw-265" value="" style="ellipse;whiteSpace=wrap;html=1;aspect=fixed;" vertex="1" parent="1">
          <mxGeometry x="195" y="320" width="10" height="10" as="geometry" />
        </mxCell>
        <mxCell id="zSam9myJTZ1_99XPvLMw-279" style="edgeStyle=orthogonalEdgeStyle;rounded=0;orthogonalLoop=1;jettySize=auto;html=1;entryX=0.5;entryY=0;entryDx=0;entryDy=0;" edge="1" parent="1" source="zSam9myJTZ1_99XPvLMw-270" target="zSam9myJTZ1_99XPvLMw-275">
          <mxGeometry relative="1" as="geometry" />
        </mxCell>
        <mxCell id="zSam9myJTZ1_99XPvLMw-270" value="กำหนดค่า i = 0" style="whiteSpace=wrap;html=1;" vertex="1" parent="1">
          <mxGeometry x="140" y="1840" width="120" height="40" as="geometry" />
        </mxCell>
        <mxCell id="zSam9myJTZ1_99XPvLMw-280" value="" style="edgeStyle=orthogonalEdgeStyle;rounded=0;orthogonalLoop=1;jettySize=auto;html=1;" edge="1" parent="1" source="zSam9myJTZ1_99XPvLMw-275" target="50">
          <mxGeometry relative="1" as="geometry" />
        </mxCell>
        <mxCell id="zSam9myJTZ1_99XPvLMw-275" value="" style="ellipse;whiteSpace=wrap;html=1;aspect=fixed;" vertex="1" parent="1">
          <mxGeometry x="195" y="1910" width="10" height="10" as="geometry" />
        </mxCell>
        <mxCell id="zSam9myJTZ1_99XPvLMw-282" value="TRUE" style="text;html=1;align=center;verticalAlign=middle;whiteSpace=wrap;rounded=0;" vertex="1" parent="1">
          <mxGeometry x="200" y="440" width="60" height="30" as="geometry" />
        </mxCell>
        <mxCell id="zSam9myJTZ1_99XPvLMw-283" value="FALSE" style="text;html=1;align=center;verticalAlign=middle;whiteSpace=wrap;rounded=0;" vertex="1" parent="1">
          <mxGeometry x="250" y="370" width="60" height="30" as="geometry" />
        </mxCell>
        <mxCell id="zSam9myJTZ1_99XPvLMw-284" value="TRUE" style="text;html=1;align=center;verticalAlign=middle;whiteSpace=wrap;rounded=0;" vertex="1" parent="1">
          <mxGeometry x="200" y="2040" width="60" height="30" as="geometry" />
        </mxCell>
        <mxCell id="zSam9myJTZ1_99XPvLMw-285" value="FALSE" style="text;html=1;align=center;verticalAlign=middle;whiteSpace=wrap;rounded=0;" vertex="1" parent="1">
          <mxGeometry x="250" y="1970" width="60" height="30" as="geometry" />
        </mxCell>
        <mxCell id="zSam9myJTZ1_99XPvLMw-286" value="TRUE" style="text;html=1;align=center;verticalAlign=middle;whiteSpace=wrap;rounded=0;" vertex="1" parent="1">
          <mxGeometry x="860" y="90" width="60" height="30" as="geometry" />
        </mxCell>
        <mxCell id="zSam9myJTZ1_99XPvLMw-287" value="FALSE" style="text;html=1;align=center;verticalAlign=middle;whiteSpace=wrap;rounded=0;" vertex="1" parent="1">
          <mxGeometry x="760" y="160" width="60" height="30" as="geometry" />
        </mxCell>
        <mxCell id="zSam9myJTZ1_99XPvLMw-288" value="TRUE" style="text;html=1;align=center;verticalAlign=middle;whiteSpace=wrap;rounded=0;" vertex="1" parent="1">
          <mxGeometry x="860" y="210" width="60" height="30" as="geometry" />
        </mxCell>
        <mxCell id="zSam9myJTZ1_99XPvLMw-289" value="FALSE" style="text;html=1;align=center;verticalAlign=middle;whiteSpace=wrap;rounded=0;" vertex="1" parent="1">
          <mxGeometry x="760" y="280" width="60" height="30" as="geometry" />
        </mxCell>
        <mxCell id="zSam9myJTZ1_99XPvLMw-290" value="TRUE" style="text;html=1;align=center;verticalAlign=middle;whiteSpace=wrap;rounded=0;" vertex="1" parent="1">
          <mxGeometry x="860" y="330" width="60" height="30" as="geometry" />
        </mxCell>
        <mxCell id="zSam9myJTZ1_99XPvLMw-291" value="FALSE" style="text;html=1;align=center;verticalAlign=middle;whiteSpace=wrap;rounded=0;" vertex="1" parent="1">
          <mxGeometry x="760" y="400" width="60" height="30" as="geometry" />
        </mxCell>
        <mxCell id="zSam9myJTZ1_99XPvLMw-292" value="TRUE" style="text;html=1;align=center;verticalAlign=middle;whiteSpace=wrap;rounded=0;" vertex="1" parent="1">
          <mxGeometry x="860" y="450" width="60" height="30" as="geometry" />
        </mxCell>
        <mxCell id="zSam9myJTZ1_99XPvLMw-293" value="FALSE" style="text;html=1;align=center;verticalAlign=middle;whiteSpace=wrap;rounded=0;" vertex="1" parent="1">
          <mxGeometry x="760" y="520" width="60" height="30" as="geometry" />
        </mxCell>
        <mxCell id="zSam9myJTZ1_99XPvLMw-294" value="TRUE" style="text;html=1;align=center;verticalAlign=middle;whiteSpace=wrap;rounded=0;" vertex="1" parent="1">
          <mxGeometry x="860" y="570" width="60" height="30" as="geometry" />
        </mxCell>
        <mxCell id="zSam9myJTZ1_99XPvLMw-295" value="FALSE" style="text;html=1;align=center;verticalAlign=middle;whiteSpace=wrap;rounded=0;" vertex="1" parent="1">
          <mxGeometry x="760" y="640" width="60" height="30" as="geometry" />
        </mxCell>
        <mxCell id="zSam9myJTZ1_99XPvLMw-296" value="TRUE" style="text;html=1;align=center;verticalAlign=middle;whiteSpace=wrap;rounded=0;" vertex="1" parent="1">
          <mxGeometry x="860" y="690" width="60" height="30" as="geometry" />
        </mxCell>
        <mxCell id="zSam9myJTZ1_99XPvLMw-297" value="FALSE" style="text;html=1;align=center;verticalAlign=middle;whiteSpace=wrap;rounded=0;" vertex="1" parent="1">
          <mxGeometry x="760" y="760" width="60" height="30" as="geometry" />
        </mxCell>
        <mxCell id="zSam9myJTZ1_99XPvLMw-298" value="TRUE" style="text;html=1;align=center;verticalAlign=middle;whiteSpace=wrap;rounded=0;" vertex="1" parent="1">
          <mxGeometry x="860" y="810" width="60" height="30" as="geometry" />
        </mxCell>
        <mxCell id="zSam9myJTZ1_99XPvLMw-299" value="FALSE" style="text;html=1;align=center;verticalAlign=middle;whiteSpace=wrap;rounded=0;" vertex="1" parent="1">
          <mxGeometry x="760" y="880" width="60" height="30" as="geometry" />
        </mxCell>
      </root>
    </mxGraphModel>
  </diagram>
</mxfile>
